# xmcd
#
# Track frame offsets: 
#        150
#        11297
#        21332
#        32907
#        46097
#        59855
#        73462
#        84567
#        98187
#        107942
#        117952
#        129417
#        139220
#        151497
#        163405
#        174127
#        187017
#        197335
#        210862
#        223272
#        234085
#        246147
#        256787
#
# Disc length: 3545 seconds
#
# Revision: 1
# Processed by: cddbd v1.5.2PL0 Copyright (c) Steve Scherf et al.
# Submitted via: ExactAudioCopy v0.99pb4
#
DISCID=460dd717
DTITLE=Eddie "Guitar Slim" Jones - The Things That I Used To Do
DYEAR=1996
DGENRE=Blues
TTITLE0=Sufferin' Mind
TTITLE1=Stand By Me
TTITLE2=Guitar Slim
TTITLE3=Bad Luck Blues
TTITLE4=Trouble Don't Last
TTITLE5=The Things I Used To Do
TTITLE6=Well I Done Got Over It
TTITLE7=Story Of My Life
TTITLE8=Letter To My Girlfriend
TTITLE9=Bad Luck Is On Me (Woman Troubles)
TTITLE10=New Arrival
TTITLE11=Crying In The Morning
TTITLE12=Standing At The Station
TTITLE13=Reap That You Sow
TTITLE14=Quicksand
TTITLE15=You're Gonna Miss Me
TTITLE16=You Give Me Nothing But The Blues
TTITLE17=Going Down Slow
TTITLE18=Something To Remeber You By
TTITLE19=Down Through The Years
TTITLE20=I Hurts To Love Someone
TTITLE21=Hello, How Ya Bin, Goodbye
TTITLE22=When There's No Way Out
EXTD=ID3G: 0
EXTT0=
EXTT1=
EXTT2=
EXTT3=
EXTT4=
EXTT5=
EXTT6=
EXTT7=
EXTT8=
EXTT9=
EXTT10=
EXTT11=
EXTT12=
EXTT13=
EXTT14=
EXTT15=
EXTT16=
EXTT17=
EXTT18=
EXTT19=
EXTT20=
EXTT21=
EXTT22=
PLAYORDER=
